<mxfile host="app.diagrams.net" agent="Mozilla/5.0 (X11; Linux x86_64; rv:141.0) Gecko/20100101 Firefox/141.0" version="28.0.7">
  <diagram name="Page-1" id="6cpkYb51kzu3OphsHON6">
    <mxGraphModel dx="1238" dy="782" grid="1" gridSize="10" guides="1" tooltips="1" connect="1" arrows="1" fold="1" page="1" pageScale="1" pageWidth="827" pageHeight="1169" math="0" shadow="0">
      <root>
        <mxCell id="0" />
        <mxCell id="1" parent="0" />
        <mxCell id="r-7TVzbVfremJKyYEdqD-1" value="&lt;div&gt;&lt;font style=&quot;font-size: 32px;&quot;&gt;Gateway&lt;/font&gt;&lt;/div&gt;&lt;div&gt;&lt;font style=&quot;font-size: 32px;&quot;&gt;Service&lt;/font&gt;&lt;/div&gt;" style="rounded=0;whiteSpace=wrap;html=1;" vertex="1" parent="1">
          <mxGeometry x="200" y="440" width="160" height="120" as="geometry" />
        </mxCell>
        <mxCell id="r-7TVzbVfremJKyYEdqD-2" value="Client" style="shape=umlActor;verticalLabelPosition=bottom;verticalAlign=top;html=1;outlineConnect=0;" vertex="1" parent="1">
          <mxGeometry x="40" y="460" width="40" height="80" as="geometry" />
        </mxCell>
        <mxCell id="r-7TVzbVfremJKyYEdqD-6" value="&lt;font style=&quot;font-size: 32px;&quot;&gt;Authorisation Service&lt;/font&gt;" style="rounded=0;whiteSpace=wrap;html=1;" vertex="1" parent="1">
          <mxGeometry x="440" y="240" width="240" height="120" as="geometry" />
        </mxCell>
        <mxCell id="r-7TVzbVfremJKyYEdqD-8" value="&lt;font style=&quot;font-size: 32px;&quot;&gt;Server Management Service&lt;/font&gt;" style="rounded=0;whiteSpace=wrap;html=1;" vertex="1" parent="1">
          <mxGeometry x="440" y="440" width="240" height="120" as="geometry" />
        </mxCell>
        <mxCell id="r-7TVzbVfremJKyYEdqD-10" value="&lt;font style=&quot;font-size: 32px;&quot;&gt;Messaging &amp;amp; Media Service&lt;/font&gt;" style="rounded=0;whiteSpace=wrap;html=1;" vertex="1" parent="1">
          <mxGeometry x="440" y="600" width="240" height="120" as="geometry" />
        </mxCell>
        <mxCell id="r-7TVzbVfremJKyYEdqD-13" value="&lt;font style=&quot;font-size: 32px;&quot;&gt;Real-Time Communication Service&lt;/font&gt;" style="rounded=0;whiteSpace=wrap;html=1;" vertex="1" parent="1">
          <mxGeometry x="440" y="760" width="240" height="120" as="geometry" />
        </mxCell>
        <mxCell id="r-7TVzbVfremJKyYEdqD-16" value="&lt;font style=&quot;font-size: 32px;&quot;&gt;System Service&lt;/font&gt;" style="rounded=0;whiteSpace=wrap;html=1;" vertex="1" parent="1">
          <mxGeometry x="200" y="240" width="160" height="120" as="geometry" />
        </mxCell>
        <mxCell id="r-7TVzbVfremJKyYEdqD-24" value="" style="endArrow=classic;html=1;rounded=0;entryX=0.5;entryY=1;entryDx=0;entryDy=0;exitX=0.5;exitY=0;exitDx=0;exitDy=0;" edge="1" parent="1" source="r-7TVzbVfremJKyYEdqD-1" target="r-7TVzbVfremJKyYEdqD-16">
          <mxGeometry width="50" height="50" relative="1" as="geometry">
            <mxPoint x="470" y="420" as="sourcePoint" />
            <mxPoint x="520" y="370" as="targetPoint" />
          </mxGeometry>
        </mxCell>
        <mxCell id="r-7TVzbVfremJKyYEdqD-26" value="" style="endArrow=classic;html=1;rounded=0;entryX=0;entryY=0.5;entryDx=0;entryDy=0;" edge="1" parent="1" source="r-7TVzbVfremJKyYEdqD-2" target="r-7TVzbVfremJKyYEdqD-1">
          <mxGeometry width="50" height="50" relative="1" as="geometry">
            <mxPoint x="470" y="420" as="sourcePoint" />
            <mxPoint x="520" y="370" as="targetPoint" />
          </mxGeometry>
        </mxCell>
        <mxCell id="r-7TVzbVfremJKyYEdqD-29" value="" style="endArrow=classic;html=1;rounded=0;entryX=0;entryY=0.5;entryDx=0;entryDy=0;exitX=1;exitY=0.5;exitDx=0;exitDy=0;" edge="1" parent="1" source="r-7TVzbVfremJKyYEdqD-1" target="r-7TVzbVfremJKyYEdqD-8">
          <mxGeometry width="50" height="50" relative="1" as="geometry">
            <mxPoint x="440" y="640" as="sourcePoint" />
            <mxPoint x="440" y="560" as="targetPoint" />
          </mxGeometry>
        </mxCell>
        <mxCell id="r-7TVzbVfremJKyYEdqD-30" value="" style="endArrow=classic;html=1;rounded=0;entryX=0;entryY=0.5;entryDx=0;entryDy=0;exitX=1;exitY=1;exitDx=0;exitDy=0;" edge="1" parent="1" source="r-7TVzbVfremJKyYEdqD-1" target="r-7TVzbVfremJKyYEdqD-10">
          <mxGeometry width="50" height="50" relative="1" as="geometry">
            <mxPoint x="410" y="570" as="sourcePoint" />
            <mxPoint x="490" y="570" as="targetPoint" />
          </mxGeometry>
        </mxCell>
        <mxCell id="r-7TVzbVfremJKyYEdqD-33" value="" style="endArrow=classic;html=1;rounded=0;entryX=0;entryY=0.5;entryDx=0;entryDy=0;exitX=1;exitY=0;exitDx=0;exitDy=0;" edge="1" parent="1" source="r-7TVzbVfremJKyYEdqD-1" target="r-7TVzbVfremJKyYEdqD-6">
          <mxGeometry width="50" height="50" relative="1" as="geometry">
            <mxPoint x="510" y="530" as="sourcePoint" />
            <mxPoint x="590" y="530" as="targetPoint" />
          </mxGeometry>
        </mxCell>
        <mxCell id="r-7TVzbVfremJKyYEdqD-34" value="" style="endArrow=classic;html=1;rounded=0;entryX=0;entryY=0.5;entryDx=0;entryDy=0;exitX=0.5;exitY=1;exitDx=0;exitDy=0;" edge="1" parent="1" source="r-7TVzbVfremJKyYEdqD-1" target="r-7TVzbVfremJKyYEdqD-13">
          <mxGeometry width="50" height="50" relative="1" as="geometry">
            <mxPoint x="440" y="790" as="sourcePoint" />
            <mxPoint x="520" y="890" as="targetPoint" />
          </mxGeometry>
        </mxCell>
        <mxCell id="r-7TVzbVfremJKyYEdqD-35" value="&lt;font style=&quot;font-size: 24px;&quot;&gt;Comms DB&lt;/font&gt;" style="shape=cylinder3;whiteSpace=wrap;html=1;boundedLbl=1;backgroundOutline=1;size=15;" vertex="1" parent="1">
          <mxGeometry x="760" y="680" width="120" height="120" as="geometry" />
        </mxCell>
        <mxCell id="r-7TVzbVfremJKyYEdqD-37" value="" style="endArrow=classic;html=1;rounded=0;entryX=0;entryY=0.5;entryDx=0;entryDy=0;entryPerimeter=0;exitX=1;exitY=0.5;exitDx=0;exitDy=0;" edge="1" parent="1" source="r-7TVzbVfremJKyYEdqD-10" target="r-7TVzbVfremJKyYEdqD-35">
          <mxGeometry width="50" height="50" relative="1" as="geometry">
            <mxPoint x="710" y="700" as="sourcePoint" />
            <mxPoint x="760" y="650" as="targetPoint" />
          </mxGeometry>
        </mxCell>
        <mxCell id="r-7TVzbVfremJKyYEdqD-38" value="" style="endArrow=classic;html=1;rounded=0;entryX=0;entryY=0.5;entryDx=0;entryDy=0;entryPerimeter=0;exitX=1;exitY=0.5;exitDx=0;exitDy=0;" edge="1" parent="1" source="r-7TVzbVfremJKyYEdqD-13" target="r-7TVzbVfremJKyYEdqD-35">
          <mxGeometry width="50" height="50" relative="1" as="geometry">
            <mxPoint x="750" y="820" as="sourcePoint" />
            <mxPoint x="830" y="910" as="targetPoint" />
          </mxGeometry>
        </mxCell>
        <mxCell id="r-7TVzbVfremJKyYEdqD-39" value="&lt;font style=&quot;font-size: 24px;&quot;&gt;Server Details DB&lt;/font&gt;" style="shape=cylinder3;whiteSpace=wrap;html=1;boundedLbl=1;backgroundOutline=1;size=15;" vertex="1" parent="1">
          <mxGeometry x="760" y="340" width="160" height="120" as="geometry" />
        </mxCell>
        <mxCell id="r-7TVzbVfremJKyYEdqD-41" value="" style="endArrow=classic;html=1;rounded=0;entryX=0;entryY=0.5;entryDx=0;entryDy=0;entryPerimeter=0;exitX=1;exitY=0.5;exitDx=0;exitDy=0;" edge="1" parent="1" source="r-7TVzbVfremJKyYEdqD-8" target="r-7TVzbVfremJKyYEdqD-39">
          <mxGeometry width="50" height="50" relative="1" as="geometry">
            <mxPoint x="780" y="660" as="sourcePoint" />
            <mxPoint x="860" y="740" as="targetPoint" />
          </mxGeometry>
        </mxCell>
        <mxCell id="r-7TVzbVfremJKyYEdqD-43" value="" style="endArrow=classic;html=1;rounded=0;entryX=0;entryY=0.5;entryDx=0;entryDy=0;entryPerimeter=0;exitX=1;exitY=0.5;exitDx=0;exitDy=0;" edge="1" parent="1" source="r-7TVzbVfremJKyYEdqD-6" target="r-7TVzbVfremJKyYEdqD-39">
          <mxGeometry width="50" height="50" relative="1" as="geometry">
            <mxPoint x="760" y="570" as="sourcePoint" />
            <mxPoint x="840" y="570" as="targetPoint" />
          </mxGeometry>
        </mxCell>
        <mxCell id="r-7TVzbVfremJKyYEdqD-44" value="&lt;font style=&quot;font-size: 24px;&quot;&gt;Audit DB&lt;/font&gt;" style="shape=cylinder3;whiteSpace=wrap;html=1;boundedLbl=1;backgroundOutline=1;size=15;" vertex="1" parent="1">
          <mxGeometry x="220" y="100" width="120" height="100" as="geometry" />
        </mxCell>
        <mxCell id="r-7TVzbVfremJKyYEdqD-45" value="" style="endArrow=classic;html=1;rounded=0;entryX=0.5;entryY=1;entryDx=0;entryDy=0;exitX=0.5;exitY=0;exitDx=0;exitDy=0;entryPerimeter=0;" edge="1" parent="1" source="r-7TVzbVfremJKyYEdqD-16" target="r-7TVzbVfremJKyYEdqD-44">
          <mxGeometry width="50" height="50" relative="1" as="geometry">
            <mxPoint x="300" y="470" as="sourcePoint" />
            <mxPoint x="300" y="390" as="targetPoint" />
          </mxGeometry>
        </mxCell>
      </root>
    </mxGraphModel>
  </diagram>
</mxfile>
